<svg width="102" height="99" viewBox="0 0 102 99" fill="none" xmlns="http://www.w3.org/2000/svg">
<path d="M68.1772 0.906738L80.8198 22.8043L33.2496 96.7184L20.607 74.8208L68.1772 0.906738Z" fill="#2C1783"/>
<path d="M68.1766 0.906889L80.8192 22.8045L35.4842 22.4361L22.8416 0.53852L68.1766 0.906889Z" fill="#FCAC3A"/>
<path d="M101.507 58.6371L88.8639 36.7395L66.5155 76.1849L79.158 98.0825L101.507 58.6371Z" fill="#FCAC3A"/>
<path d="M0.493246 39.984L13.1358 61.8816L35.4843 22.4362L22.8417 0.538629L0.493246 39.984Z" fill="#FC8B3A"/>
<path d="M33.8236 97.7137L21.1811 75.8161L66.516 76.1845L79.1586 98.0821L33.8236 97.7137Z" fill="#FC8B3A"/>
<path d="M101.699 58.9688L89.0562 37.0712L1.25955 41.3112L13.9021 63.2087L101.699 58.9688Z" fill="#755CDE"/>
</svg>
