<svg width="441" height="137" viewBox="0 0 441 137" fill="none" xmlns="http://www.w3.org/2000/svg">
<path d="M171.117 46.3622C171.117 47.5501 170.608 48.5683 169.646 49.4167C168.685 50.2652 167.412 50.6895 165.885 50.6895C164.923 50.6895 163.962 50.5481 163 50.2369C162.038 49.9541 161.218 49.6147 160.596 49.2188C159.945 48.8228 159.323 48.3703 158.757 47.8612C158.192 47.3521 157.796 47.0127 157.598 46.8147C157.4 46.645 157.259 46.4753 157.202 46.3622L150.838 53.0087L151.461 53.7157C151.885 54.2248 152.564 54.7905 153.497 55.4693C154.402 56.1481 155.477 56.8268 156.665 57.5056C157.852 58.1844 159.38 58.7784 161.246 59.2592C163.113 59.74 165.036 59.9662 167.044 59.9662C171.937 59.9662 175.869 58.6935 178.838 56.1198C181.78 53.5743 183.279 50.4066 183.279 46.645C183.279 44.7218 182.911 43.0248 182.232 41.5541C181.525 40.0834 180.62 38.9238 179.517 38.047C178.414 37.1986 177.198 36.4349 175.84 35.8127C174.483 35.1905 173.153 34.6814 171.824 34.2854C170.495 33.8895 169.279 33.4935 168.176 33.1258C167.073 32.7582 166.168 32.3056 165.489 31.7683C164.782 31.2309 164.442 30.5804 164.442 29.845C164.442 28.94 164.838 28.1198 165.687 27.4127C166.507 26.7339 167.553 26.3662 168.798 26.3662C169.986 26.3662 171.145 26.6774 172.305 27.2713C173.465 27.8935 174.228 28.3743 174.596 28.7137C174.964 29.0531 175.246 29.3359 175.444 29.5622L181.836 22.8875L181.299 22.3218C180.988 21.8976 180.45 21.4168 179.659 20.8511C178.867 20.2854 177.933 19.7198 176.887 19.1541C175.84 18.5885 174.511 18.1077 172.871 17.7117C171.23 17.3157 169.477 17.0895 167.638 17.0895C163.141 17.0895 159.465 18.3622 156.58 20.8511C153.695 23.34 152.281 26.2531 152.281 29.5622C152.281 31.4854 152.62 33.1824 153.327 34.6531C154.006 36.1238 154.911 37.3117 156.014 38.1602C157.117 39.0369 158.333 39.7723 159.663 40.3945C160.992 41.0167 162.321 41.5541 163.679 41.9501C165.036 42.346 166.252 42.742 167.355 43.0814C168.459 43.4491 169.364 43.9016 170.071 44.439C170.749 45.0046 171.117 45.6268 171.117 46.3622ZM202.711 43.4491L212.837 58.8066H225.592L209.952 35.0491L224.432 18.2491H211.677L198.356 33.8895V18.2491H187.354V58.8066H198.356V48.3703L202.711 43.4491ZM233.994 38.5279C233.994 35.2188 235.069 32.4753 237.247 30.2693C239.396 28.0632 242.083 26.9602 245.307 26.9602C248.503 26.9602 251.19 28.0632 253.34 30.2693C255.489 32.4753 256.564 35.2188 256.564 38.5279C256.564 41.8652 255.489 44.6087 253.34 46.8147C251.19 49.0208 248.503 50.1238 245.307 50.1238C242.083 50.1238 239.396 49.0208 237.247 46.8147C235.069 44.6087 233.994 41.8652 233.994 38.5279ZM267.877 38.5279C267.877 32.6733 265.671 27.639 261.287 23.4248C256.903 19.2107 251.558 17.0895 245.279 17.0895C239 17.0895 233.655 19.2107 229.271 23.4248C224.887 27.639 222.709 32.6733 222.709 38.5279C222.709 44.4107 224.887 49.445 229.271 53.6592C233.655 57.8733 239 59.9662 245.279 59.9662C251.558 59.9662 256.903 57.8733 261.287 53.6592C265.671 49.445 267.877 44.4107 267.877 38.5279ZM290.788 50.1238C288.724 50.1238 286.942 49.3602 285.471 47.7763C284.001 46.2208 283.265 44.2976 283.265 42.0066V18.2491H272.263V42.0066C272.263 47.0976 274.017 51.3683 277.524 54.8188C281.031 58.2693 285.443 59.9662 290.788 59.9662C296.106 59.9662 300.546 58.2693 304.053 54.8188C307.56 51.3683 309.314 47.0976 309.314 42.0066V18.2491H298.312V42.0066C298.312 44.2976 297.548 46.2208 296.077 47.7763C294.607 49.3602 292.825 50.1238 290.788 50.1238ZM315.991 58.8066H326.993V46.0511H332.791L339.748 58.8066H351.316L342.916 44.043L343.68 43.6188C344.132 43.3925 344.698 42.9965 345.377 42.3743C346.055 41.7521 346.734 41.0167 347.413 40.14C348.092 39.2632 348.657 38.1319 349.138 36.7178C349.619 35.3036 349.874 33.8046 349.874 32.1642C349.874 28.2329 348.459 24.9238 345.688 22.2652C342.916 19.6067 339.381 18.2774 335.11 18.2774H315.991V58.8066ZM338.872 32.1642C338.872 33.3238 338.447 34.2854 337.655 35.0774C336.835 35.841 335.789 36.2369 334.516 36.2369H326.993V28.1481H334.516C335.789 28.1481 336.835 28.5157 337.655 29.2794C338.447 30.043 338.872 31.0046 338.872 32.1642ZM372.163 46.3622C372.163 47.5501 371.654 48.5683 370.692 49.4167C369.73 50.2652 368.458 50.6895 366.93 50.6895C365.969 50.6895 365.007 50.5481 364.046 50.2369C363.084 49.9541 362.264 49.6147 361.641 49.2188C360.991 48.8228 360.369 48.3703 359.803 47.8612C359.237 47.3521 358.841 47.0127 358.644 46.8147C358.446 46.645 358.304 46.4753 358.248 46.3622L351.884 53.0087L352.506 53.7157C352.93 54.2248 353.609 54.7905 354.543 55.4693C355.448 56.1481 356.522 56.8268 357.71 57.5056C358.898 58.1844 360.425 58.7784 362.292 59.2592C364.159 59.74 366.082 59.9662 368.09 59.9662C372.983 59.9662 376.914 58.6935 379.884 56.1198C382.825 53.5743 384.324 50.4066 384.324 46.645C384.324 44.7218 383.957 43.0248 383.278 41.5541C382.571 40.0834 381.666 38.9238 380.563 38.047C379.46 37.1986 378.244 36.4349 376.886 35.8127C375.528 35.1905 374.199 34.6814 372.87 34.2854C371.54 33.8895 370.324 33.4935 369.221 33.1258C368.118 32.7582 367.213 32.3056 366.534 31.7683C365.827 31.2309 365.488 30.5804 365.488 29.845C365.488 28.94 365.884 28.1198 366.732 27.4127C367.553 26.7339 368.599 26.3662 369.844 26.3662C371.031 26.3662 372.191 26.6774 373.351 27.2713C374.51 27.8935 375.274 28.3743 375.641 28.7137C376.009 29.0531 376.292 29.3359 376.49 29.5622L382.882 22.8875L382.345 22.3218C382.033 21.8976 381.496 21.4168 380.704 20.8511C379.912 20.2854 378.979 19.7198 377.932 19.1541C376.886 18.5885 375.557 18.1077 373.916 17.7117C372.276 17.3157 370.522 17.0895 368.684 17.0895C364.187 17.0895 360.51 18.3622 357.625 20.8511C354.74 23.34 353.326 26.2531 353.326 29.5622C353.326 31.4854 353.666 33.1824 354.373 34.6531C355.052 36.1238 355.957 37.3117 357.06 38.1602C358.163 39.0369 359.379 39.7723 360.708 40.3945C362.037 41.0167 363.367 41.5541 364.724 41.9501C366.082 42.346 367.298 42.742 368.401 43.0814C369.504 43.4491 370.409 43.9016 371.116 44.439C371.795 45.0046 372.163 45.6268 372.163 46.3622ZM399.401 49.5299V42.6006H415.042V33.8895H399.401V27.5258H419.68V18.2491H388.399V58.8066H420.246V49.5299H399.401ZM174.879 93.441H167.355L171.117 81.5622L174.879 93.441ZM177.764 102.124L180.677 110.807H192.555L177.198 70.2491H165.036L149.679 110.807H161.557L164.442 102.124H177.764ZM201.241 90.5279C201.241 87.2188 202.344 84.4753 204.55 82.2693C206.756 80.0632 209.499 78.9602 212.837 78.9602C214.053 78.9602 215.269 79.1582 216.457 79.5258C217.645 79.8935 218.606 80.3178 219.342 80.7703C220.077 81.2228 220.784 81.7602 221.463 82.3541C222.142 82.9481 222.594 83.3723 222.764 83.5986C222.962 83.8248 223.103 84.0228 223.216 84.1642L229.891 77.2066L229.241 76.3864C228.845 75.8208 228.166 75.142 227.204 74.3501C226.243 73.5582 225.14 72.7662 223.867 71.9743C222.594 71.1824 220.982 70.5036 219.002 69.938C217.051 69.3723 214.986 69.0895 212.808 69.0895C206.529 69.0895 201.184 71.2107 196.8 75.4248C192.416 79.639 190.21 84.6733 190.21 90.5279C190.21 96.4107 192.416 101.445 196.8 105.659C201.184 109.873 206.529 111.966 212.808 111.966C215.014 111.966 217.107 111.683 219.144 111.118C221.18 110.552 222.792 109.902 224.037 109.166C225.281 108.459 226.412 107.639 227.487 106.706C228.562 105.772 229.241 105.122 229.523 104.754C229.806 104.386 230.032 104.075 230.174 103.849L223.81 96.8915L222.594 98.1925C221.802 99.0976 220.473 99.9743 218.634 100.823C216.824 101.7 214.873 102.124 212.808 102.124C209.499 102.124 206.727 101.021 204.521 98.8147C202.315 96.6087 201.241 93.8652 201.241 90.5279ZM254.245 93.441H246.722L250.483 81.5622L254.245 93.441ZM257.13 102.124L260.043 110.807H271.922L256.564 70.2491H244.402L229.045 110.807H240.924L243.808 102.124H257.13ZM274.243 70.2491V110.807H289.883C296.049 110.807 301.14 108.855 305.213 104.952C309.285 101.049 311.322 96.241 311.322 90.5279C311.322 84.8147 309.285 80.0066 305.241 76.1036C301.168 72.2006 296.049 70.2491 289.883 70.2491H274.243ZM289.883 80.1198C292.938 80.1198 295.427 81.1097 297.378 83.0329C299.302 84.9844 300.292 87.4733 300.292 90.5279C300.292 93.5258 299.245 96.0147 297.209 97.9945C295.144 99.9743 292.712 100.964 289.883 100.964H285.245V80.1198H289.883ZM326.936 101.53V94.6006H342.577V85.8895H326.936V79.5258H347.215V70.2491H315.934V110.807H347.781V101.53H326.936ZM374.708 100.964L386.021 86.7662V110.807H397.023V70.2491H387.181L374.708 86.2006L362.264 70.2491H352.421V110.807H363.423V86.7662L374.708 100.964ZM427.401 70.2491L419.312 85.8895L411.195 70.2491H399.316L413.797 96.3258V110.807H424.799V96.3258L439.28 70.2491H427.401Z" fill="white"/>
<path d="M79.1772 19.9067L91.8198 41.8043L44.2496 115.718L31.607 93.8208L79.1772 19.9067Z" fill="#2C1783"/>
<path d="M79.1766 19.9069L91.8192 41.8045L46.4842 41.4361L33.8416 19.5385L79.1766 19.9069Z" fill="#FCAC3A"/>
<path d="M112.507 77.6371L99.8639 55.7395L77.5155 95.1849L90.158 117.082L112.507 77.6371Z" fill="#FCAC3A"/>
<path d="M11.4932 58.984L24.1358 80.8816L46.4843 41.4362L33.8417 19.5386L11.4932 58.984Z" fill="#FC8B3A"/>
<path d="M44.8236 116.714L32.1811 94.8161L77.516 95.1845L90.1586 117.082L44.8236 116.714Z" fill="#FC8B3A"/>
<path d="M112.699 77.9688L100.056 56.0712L12.2596 60.3112L24.9021 82.2087L112.699 77.9688Z" fill="#755CDE"/>
</svg>
